<?xml version="1.0" encoding="UTF-8"?>
<svg width="45" height="35" xmlns="http://www.w3.org/2000/svg" xmlns:svg="http://www.w3.org/2000/svg" xmlns:xlink="http://www.w3.org/1999/xlink">
 <style type="text/css">.st0{display:none;}
	.st1{display:inline;}
	.st2{fill:#4178BE;}
	.st3{fill:#FFFFFF;}
	.st4{display:inline;fill:#4178BE;}
	.st5{fill:none;}</style>
 <defs>
  <symbol viewBox="23 -2 75 35" y="0px" x="0px" xmlns:xlink="http://www.w3.org/1999/xlink" xmlns="http://www.w3.org/2000/svg" id="svg_13">
   <style type="text/css">.st0{fill:none;}</style>
   <g id="svg_10">
    <line y2="15" x2="40.2" y1="15" x1="32.2" class="st0" id="svg_12"/>
    <path d="m38.599998,17l-6.5,0c-1.200001,0 -2.299999,-0.799999 -2.299999,-2s1,-2 2.299999,-2l6.5,0c1.200001,0 2.299999,0.8 2.299999,2c-0.099998,1.299999 -1.099998,2 -2.299999,2z" id="svg_11"/>
   </g>
   <path d="m91,17l-6.5,0c-1.199997,0 -2.300003,-0.799999 -2.300003,-2s1,-2 2.300003,-2l6.5,0c1.199997,0 2.300003,0.8 2.300003,2c0,1.299999 -1.100006,2 -2.300003,2z" id="svg_9"/>
   <path d="m51.700001,17l-6.5,0c-1.200001,0 -2.299999,-0.799999 -2.299999,-2s1,-2 2.299999,-2l6.5,0c1.200001,0 2.299999,0.8 2.299999,2c0,1.299999 -1,2 -2.299999,2z" id="svg_8"/>
   <path d="m77.900002,17l-6.5,0c-1.199997,0 -2.300003,-0.799999 -2.300003,-2s1,-2 2.300003,-2l6.5,0c1.199997,0 2.300003,0.8 2.300003,2c-0.000008,1.299999 -1.000008,2 -2.300003,2z" id="svg_7"/>
   <path d="m64.800003,17l-6.5,0c-1.200001,0 -2.299999,-0.799999 -2.299999,-2s1,-2 2.299999,-2l6.5,0c1.199997,0 2.300003,0.8 2.300003,2c0.099991,1.299999 -1.000008,2 -2.300003,2z" id="svg_6"/>
  </symbol>
 </defs>
 <g>
  <title>Layer 1</title>
  <circle stroke-opacity="0" id="svg_1" r="9.433981" cy="17.899994" cx="23" stroke-width="3" stroke="#000000" fill="#325c80"/>
  <use fill="#325c80" stroke="#000000" stroke-opacity="0" x="-1.188451" y="15.374771" transform="matrix(0.468208, 0, 0, 0.856336, 1.17523, -9.4837)" xlink:href="#svg_13" id="svg_14"/>
  <g id="svg_15"/>
  <use fill="#325c80" id="svg_16" x="47.511179" y="15.33244" transform="matrix(0.468208, 0, 0, 0.856336, 1.17523, -9.4837)" xlink:href="#svg_13"/>
 </g>
</svg>