<?xml version="1.0" encoding="utf-8"?>
<!-- Generator: Adobe Illustrator 15.0.2, SVG Export Plug-In . SVG Version: 6.00 Build 0)  -->
<!DOCTYPE svg PUBLIC "-//W3C//DTD SVG 1.1//EN" "http://www.w3.org/Graphics/SVG/1.1/DTD/svg11.dtd">
<svg version="1.1" id="Layer_1" xmlns="http://www.w3.org/2000/svg" xmlns:xlink="http://www.w3.org/1999/xlink" x="0px" y="0px"
	 width="512px" height="648.533px" viewBox="0 0 512 648.533" enable-background="new 0 0 512 648.533" xml:space="preserve">
<path d="M0,597.333V119.467c0-28.275,22.925-51.2,51.2-51.2H128c0,0,17.066-2.033,17.066-25.6C145.066,19.1,172.7,0,196.267,0
	h119.467c23.566,0,51.2,19.1,51.2,42.667c0,23.566,17.066,25.6,17.066,25.6h76.8c28.267,0,51.2,22.925,51.2,51.2v477.866
	c0,28.267-22.934,51.2-51.2,51.2H51.2C22.925,648.533,0,625.6,0,597.333z M221.858,51.2c-23.559,0-42.667,19.108-42.667,42.666
	c0,23.567-17.058,42.667-17.058,42.667h187.733c0,0-17.067-19.1-17.067-42.667c0-23.558-19.1-42.666-42.666-42.666H221.858z
	 M93.866,187.733l25.601-68.267H51.2v477.866h409.6V119.467h-68.267l25.601,68.267H93.866z M99.9,431.617l-11.259-12.25
	c-2.983-3.233-2.825-8.317,0.45-11.351l32.675-30.35c1.483-1.384,3.434-2.15,5.475-2.15c2.25,0,4.334,0.917,5.858,2.55
	l89.717,96.601l154.317-198.542c1.533-1.917,3.866-3.059,6.35-3.059l4.934,1.692l35.233,27.357c1.649,1.309,2.75,3.217,3.017,5.384
	c0.267,2.108-0.3,4.217-1.567,5.884L226.816,568.316L99.9,431.617z"/>
</svg>
