<?xml version="1.0" encoding="utf-8"?>
<!-- Generator: Adobe Illustrator 19.0.0, SVG Export Plug-In . SVG Version: 6.00 Build 0)  -->
<svg version="1.1" id="Dotted_line" xmlns="http://www.w3.org/2000/svg" xmlns:xlink="http://www.w3.org/1999/xlink" x="0px"
	 y="0px" viewBox="23 -2 75 35" style="enable-background:new 23 -2 75 35; fill: #9950D7;" xml:space="preserve">
<style type="text/css">
	.st0{fill:none;}
</style>
<g id="XMLID_10_">
	<line id="XMLID_12_" class="st0" x1="32.2" y1="15" x2="40.2" y2="15"/>
	<path id="XMLID_11_" d="M38.6,17h-6.5c-1.2,0-2.3-0.8-2.3-2s1-2,2.3-2h6.5c1.2,0,2.3,0.8,2.3,2C40.8,16.3,39.8,17,38.6,17z"/>
</g>
<path id="XMLID_9_" d="M91,17h-6.5c-1.2,0-2.3-0.8-2.3-2s1-2,2.3-2H91c1.2,0,2.3,0.8,2.3,2C93.3,16.3,92.2,17,91,17z"/>
<path id="XMLID_1_" d="M51.7,17h-6.5c-1.2,0-2.3-0.8-2.3-2s1-2,2.3-2h6.5c1.2,0,2.3,0.8,2.3,2C54,16.3,53,17,51.7,17z"/>
<path id="XMLID_2_" d="M77.9,17h-6.5c-1.2,0-2.3-0.8-2.3-2s1-2,2.3-2h6.5c1.2,0,2.3,0.8,2.3,2C80.2,16.3,79.2,17,77.9,17z"/>
<path id="XMLID_3_" d="M64.8,17h-6.5c-1.2,0-2.3-0.8-2.3-2s1-2,2.3-2h6.5c1.2,0,2.3,0.8,2.3,2C67.2,16.3,66.1,17,64.8,17z"/>
</svg>
