<?xml version="1.0" encoding="utf-8"?>
<!-- Generator: Adobe Illustrator 18.1.1, SVG Export Plug-In . SVG Version: 6.00 Build 0)  -->
<svg version="1.1" id="Layer_1" xmlns="http://www.w3.org/2000/svg" xmlns:xlink="http://www.w3.org/1999/xlink" x="0px" y="0px"
	 viewBox="0 0 30 30" enable-background="new 0 0 30 30" xml:space="preserve">
<g>
	<g>
		<path fill="#4178BE" d="M15.2,1.5C7.6,1.5,1.5,7.6,1.5,15.1s6.1,13.6,13.6,13.6c7.5,0,13.6-6.1,13.6-13.6S22.7,1.5,15.2,1.5z
			 M15.2,27.8c-7,0-12.7-5.7-12.7-12.7c0-7,5.7-12.7,12.7-12.7c7,0,12.7,5.7,12.7,12.7C27.8,22.1,22.2,27.8,15.2,27.8z"/>
	</g>
	<g>
		<path fill="#4178BE" d="M13.3,17.5c-0.1,1.1,0.8,2,1.9,2c1,0,1.8-0.7,1.8-1.7c0-1.2-1-1.6-1.9-1.9c-0.8-0.2-1.9-0.5-2.6-1
			c-0.9-0.6-1.4-1.7-1.4-2.8c0-1.8,1.3-3.3,3.1-3.5V6.7H16v2c0.5,0.1,0.8,0.3,1,0.7V8.7h1.6v3.4h-1.9c-0.1-0.9-0.7-1.6-1.7-1.6
			c-0.9,0-1.6,0.6-1.6,1.5c0,1.1,0.8,1.4,1.7,1.7c0.9,0.2,2,0.5,2.7,1.1c1,0.7,1.5,1.7,1.5,2.9c0,2-1.4,3.5-3.4,3.8v1.8h-1.8v-2.1
			l-0.1,0c-0.5-0.2-0.7-0.3-1-0.7v0.7h-1.8v-3.7H13.3z"/>
	</g>
</g>
</svg>
