<?xml version="1.0" encoding="utf-8"?>
<!-- Generator: Adobe Illustrator 18.1.1, SVG Export Plug-In . SVG Version: 6.00 Build 0)  -->
<svg version="1.1" id="Layer_1" xmlns="http://www.w3.org/2000/svg" xmlns:xlink="http://www.w3.org/1999/xlink" x="0px" y="0px"
	 viewBox="0 0 30 30" enable-background="new 0 0 30 30" xml:space="preserve">
<g>
	<path fill="#4178BE" d="M19,17.3c-0.7,0-1.3,0.6-1.3,1.3s0.6,1.3,1.3,1.3c0.7,0,1.3-0.6,1.3-1.3C20.3,17.9,19.7,17.3,19,17.3z"/>
	<path fill="#4178BE" d="M15.2,1.5C7.6,1.5,1.5,7.6,1.5,15.1s6.1,13.6,13.6,13.6c7.5,0,13.6-6.1,13.6-13.6S22.7,1.5,15.2,1.5z
		 M8,11.7c0-1.7,1.4-3.1,3.1-3.1c1.7,0,3.2,1.4,3.2,3.1c0,1.7-1.4,3.2-3.1,3.2C9.4,14.9,8,13.5,8,11.7z M13,21.6h-1.8L17,8.9h1.7
		L13,21.6z M19,21.8c-1.8,0-3.2-1.4-3.2-3.2c0-1.7,1.4-3.1,3.1-3.1c1.7,0,3.2,1.4,3.2,3.1C22.1,20.3,20.7,21.8,19,21.8z"/>
	<path fill="#4178BE" d="M11.1,10.5c-0.7,0-1.3,0.6-1.3,1.3c0,0.7,0.6,1.3,1.3,1.3c0.7,0,1.3-0.6,1.3-1.3
		C12.4,11,11.8,10.5,11.1,10.5z"/>
</g>
</svg>
