<?xml version="1.0" encoding="utf-8"?>
<!-- Generator: Adobe Illustrator 18.1.1, SVG Export Plug-In . SVG Version: 6.00 Build 0)  -->
<svg version="1.1" id="Layer_1" xmlns="http://www.w3.org/2000/svg" xmlns:xlink="http://www.w3.org/1999/xlink" x="0px" y="0px"
	 viewBox="0 0 30 30" enable-background="new 0 0 30 30" xml:space="preserve">
<g>
	<g>
		<path fill="#4178BE" d="M15.2,1.5C7.6,1.5,1.5,7.6,1.5,15.1s6.1,13.6,13.6,13.6c7.5,0,13.6-6.1,13.6-13.6S22.7,1.5,15.2,1.5z
			 M15.2,27.8c-7,0-12.7-5.7-12.7-12.7c0-7,5.7-12.7,12.7-12.7c7,0,12.7,5.7,12.7,12.7C27.8,22.1,22.2,27.8,15.2,27.8z"/>
	</g>
</g>
<g>
	<g>
		<path fill="#4178BE" d="M8,11.7c0-1.7,1.4-3.1,3.1-3.1c1.7,0,3.2,1.4,3.2,3.1c0,1.7-1.4,3.2-3.1,3.2C9.4,14.9,8,13.5,8,11.7z
			 M12.4,11.8c0-0.7-0.6-1.3-1.3-1.3c-0.7,0-1.3,0.6-1.3,1.3c0,0.7,0.6,1.3,1.3,1.3C11.8,13.1,12.4,12.5,12.4,11.8z M11.3,21.6
			L17,8.9h1.7L13,21.6H11.3z M15.8,18.6c0-1.7,1.4-3.1,3.1-3.1c1.7,0,3.2,1.4,3.2,3.1c0,1.7-1.4,3.2-3.1,3.2
			C17.2,21.8,15.8,20.3,15.8,18.6z M20.3,18.6c0-0.7-0.6-1.3-1.3-1.3c-0.7,0-1.3,0.6-1.3,1.3s0.6,1.3,1.3,1.3
			C19.7,19.9,20.3,19.3,20.3,18.6z"/>
	</g>
</g>
<g>
	<g>
		<path fill="#4178BE" d="M52.7,42.3c-7.5,0-13.6,6.1-13.6,13.6s6.1,13.6,13.6,13.6c7.5,0,13.6-6.1,13.6-13.6S60.2,42.3,52.7,42.3z"
			/>
	</g>
	<g>
		<path fill="#FFFFFF" d="M45.6,52.5c0-1.7,1.4-3.1,3.1-3.1c1.7,0,3.2,1.4,3.2,3.1c0,1.7-1.4,3.2-3.1,3.2
			C47,55.7,45.6,54.3,45.6,52.5z M50.1,52.6c0-0.7-0.6-1.3-1.3-1.3c-0.7,0-1.3,0.6-1.3,1.3c0,0.7,0.6,1.3,1.3,1.3
			C49.5,53.9,50.1,53.3,50.1,52.6z M48.9,62.3l5.7-12.7h1.7l-5.7,12.7H48.9z M53.4,59.3c0-1.7,1.4-3.1,3.1-3.1
			c1.7,0,3.2,1.4,3.2,3.1c0,1.7-1.4,3.2-3.1,3.2C54.8,62.5,53.4,61.1,53.4,59.3z M57.9,59.4c0-0.7-0.6-1.3-1.3-1.3
			c-0.7,0-1.3,0.6-1.3,1.3c0,0.7,0.6,1.3,1.3,1.3C57.3,60.7,57.9,60.1,57.9,59.4z"/>
	</g>
</g>
<g>
	<g>
		<path fill="#4178BE" d="M11.4,42.6c-7.5,0-13.6,6.1-13.6,13.6s6.1,13.6,13.6,13.6c7.5,0,13.6-6.1,13.6-13.6S18.9,42.6,11.4,42.6z"
			/>
	</g>
	<g>
		<path fill="#FFFFFF" d="M9.5,58.5c-0.1,1.1,0.8,2,1.9,2c1,0,1.8-0.7,1.8-1.7c0-1.2-1-1.6-1.9-1.9c-0.8-0.2-1.9-0.5-2.6-1
			c-0.9-0.6-1.4-1.7-1.4-2.8c0-1.8,1.3-3.3,3.1-3.5v-1.8h1.8v2c0.5,0.1,0.8,0.3,1,0.7v-0.8h1.6v3.4h-1.9c-0.1-0.9-0.7-1.6-1.7-1.6
			c-0.9,0-1.6,0.6-1.6,1.5c0,1.1,0.8,1.4,1.7,1.7c0.9,0.2,2,0.5,2.7,1.1c1,0.7,1.5,1.7,1.5,2.9c0,2-1.4,3.5-3.4,3.8v1.8h-1.8v-2.1
			l-0.1,0c-0.5-0.2-0.7-0.3-1-0.7v0.7H7.4v-3.7H9.5z"/>
	</g>
</g>
</svg>
