<?xml version="1.0" encoding="UTF-8"?>
<svg width="45" height="35" xmlns="http://www.w3.org/2000/svg" xmlns:svg="http://www.w3.org/2000/svg" xmlns:xlink="http://www.w3.org/1999/xlink">
 <style type="text/css">.st0{display:none;}
	.st1{display:inline;}
	.st2{fill:#AF6EE8;}
	.st3{fill:#FFFFFF;}
	.st4{display:inline;fill:#AF6EE8;}
	.st5{fill:none;}</style>
 <defs>
  <symbol id="svg_74" xmlns:svg="http://www.w3.org/2000/svg" xmlns="http://www.w3.org/2000/svg" height="195.7" width="323.3">
   <style type="text/css">.st0{display:none;}
	.st1{display:inline;}
	.st2{fill:#325c80;}
	.st3{fill:#FFFFFF;}
	.st4{display:inline;fill:#325c80;}
	.st5{fill:#AF6EE8;}
	.st6{display:inline;fill:#FFFFFF;}
	.st7{display:inline;fill:#325c80;}
	.st8{fill:#325c80;}</style>
   <g>
    <title>Layer 1</title>
    <g id="svg_69" class="st0">
     <g id="svg_70" class="st1">
      <path id="svg_73" class="st2" d="m300.200012,73.099998c-8.299988,0 -15,6.700005 -15,15c0,8.300003 6.700012,15 15,15c8.299988,0 15,-6.699997 15,-15c0,-8.299995 -6.800018,-15 -15,-15"/>
      <polygon id="svg_72" class="st3" points="302.3,86 295.9,86 295.9,88.1 298,88.1 298,94.5 295.9,94.5 295.9,96.7 304.4,96.7     304.4,94.5 302.3,94.5   "/>
      <path id="svg_71" class="st3" d="m300.200012,83.800003c1.200012,0 2.100006,-1 2.100006,-2.099991s-1,-2.099998 -2.100006,-2.099998c-1.200012,0 -2.100006,1 -2.100006,2.099998s0.899994,2.099991 2.100006,2.099991"/>
     </g>
    </g>
    <g id="svg_62" class="st0">
     <g id="svg_63" class="st1">
      <g id="svg_67">
       <path id="svg_68" class="st2" d="m234.899994,73.099998c-8.300003,0 -15,6.700005 -15,15s6.699997,15 15,15c8.300003,0 15,-6.699997 15,-15s-6.699997,-15 -15,-15z"/>
      </g>
      <g id="svg_64">
       <g id="svg_65">
        <path id="svg_66" class="st3" d="m232.800003,91c-0.100006,1.199997 0.899994,2.199997 2.100006,2.199997c1.099991,0 1.899994,-0.699997 1.899994,-1.799995c0,-1.300003 -1.100006,-1.700005 -2.100006,-2c-0.899994,-0.300003 -2,-0.599998 -2.799988,-1.200005c-1,-0.699997 -1.5,-1.899994 -1.5,-3.099998c0,-1.900002 1.5,-3.599998 3.399994,-3.900002l0,-2l2,0l0,2.200005c0.5,0.099998 0.800003,0.299995 1.100006,0.699997l0,-0.799995l1.799988,0l0,3.799995l-2.099991,0c-0.100006,-1 -0.800003,-1.799995 -1.800003,-1.799995c-1,0 -1.800003,0.599998 -1.800003,1.699997c0,1.199997 0.900009,1.599998 1.900009,1.800003c1,0.299995 2.199997,0.599998 3,1.199997c1.099991,0.800003 1.699997,1.900002 1.699997,3.199997c0,2.200005 -1.5,3.900002 -3.699997,4.200005l0,2l-2,0l0,-2.300003l-0.200012,0c-0.599991,-0.199997 -0.799988,-0.299995 -1.099991,-0.799995l0,0.799995l-1.900009,0l0,-4.099998l2.100006,0z"/>
       </g>
      </g>
     </g>
    </g>
    <g id="svg_60" class="st0">
     <path id="svg_61" class="st4" d="m151.699997,88.099998c0,8.099998 6.5,14.700005 14.699997,14.700005c8.100006,0 14.699997,-6.5 14.699997,-14.700005c0,-8.099998 -6.5,-14.699997 -14.699997,-14.699997c-8.099991,0.099998 -14.699997,6.599998 -14.699997,14.699997m16,-8l0,10.700005l4,-4l2.699997,2.699997l-8,8l-8,-8l2.699997,-2.699997l4,4l0,-10.700005l2.600006,0z"/>
    </g>
    <g id="svg_56" class="st0">
     <g id="svg_57" class="st1">
      <path id="svg_59" class="st2" d="m113,77.5l-4.400002,4.400002c-0.599998,0.599998 -1.400002,0.900002 -2.199997,0.900002c-0.800003,0 -1.599998,-0.300003 -2.200005,-0.900002c-1.199997,-1.200005 -1.199997,-3.200005 0,-4.400002l4.400002,-4.400002c-1,-0.400002 -2.099998,-0.699997 -3.299995,-0.699997c-4.600006,0 -8.400002,3.699997 -8.400002,8.400002c0,1 0.199997,1.899994 0.5,2.699997l-14,14c-1.400002,1.400002 -1.400002,3.699997 0,5.199997c0.699997,0.700005 1.699997,1.099991 2.599998,1.099991c0.900002,0 1.900002,-0.399986 2.599998,-1.099991l14,-14c0.900002,0.300003 1.800003,0.5 2.700005,0.5c4.599998,0 8.399994,-3.699997 8.399994,-8.399994c-0.099998,-1.200005 -0.299995,-2.300003 -0.699997,-3.300003z"/>
      <circle id="svg_58" class="st3" cx="85.9" cy="100.2" r="1"/>
     </g>
    </g>
    <g id="svg_50" class="st0">
     <g id="svg_51" class="st1">
      <g id="svg_54">
       <path id="svg_55" class="st2" d="m32.799999,73.099998c-8.299999,0 -15,6.700005 -15,15s6.700001,15 15,15c8.299999,0 15,-6.699997 15,-15s-6.700001,-15 -15,-15z"/>
      </g>
      <g id="svg_52">
       <path id="svg_53" class="st3" d="m25,84.300003c0,-1.900002 1.6,-3.400002 3.4,-3.400002c1.9,0 3.5,1.5 3.5,3.5c0,1.900002 -1.5,3.5 -3.5,3.5c-1.9,0 -3.4,-1.599998 -3.4,-3.599998zm4.9,0.099998c0,-0.800003 -0.6,-1.400002 -1.4,-1.400002c-0.799999,0 -1.4,0.599998 -1.4,1.400002c0,0.799995 0.6,1.5 1.4,1.5c0.700001,-0.099998 1.4,-0.700005 1.4,-1.5zm-1.299999,10.799995l6.300001,-13.900009l1.899998,0l-6.299999,13.900009l-1.9,0zm4.999998,-3.299995c0,-1.900002 1.600002,-3.400002 3.400002,-3.400002c1.900002,0 3.5,1.5 3.5,3.400002c0,1.900002 -1.5,3.5 -3.5,3.5c-1.900002,0 -3.400002,-1.599998 -3.400002,-3.5zm4.900002,0c0,-0.800003 -0.599998,-1.400002 -1.400002,-1.400002c-0.799999,0 -1.399998,0.599998 -1.399998,1.400002c0,0.799995 0.599998,1.5 1.5,1.5c0.700001,-0.099998 1.299999,-0.700005 1.299999,-1.5z"/>
      </g>
     </g>
    </g>
    <g id="svg_48" class="st0">
     <path id="svg_49" class="st1" d="m298.200012,43.299999l-18.399994,0c-1.5,0 -2.800018,-1 -2.800018,-2.5c0,-1.5 1.200012,-2.5 2.800018,-2.5l18.399994,0c1.5,0 2.799988,1 2.799988,2.5c0,1.600002 -1.200012,2.5 -2.799988,2.5z"/>
    </g>
    <g id="svg_45" class="st0">
     <g id="svg_46" class="st1">
      <path id="svg_47" d="m252,42.700001c0,-2 1.600006,-3.600002 3.600006,-3.600002l0,0c2,0 3.600006,1.600002 3.600006,3.600002l0,0c0,2 -1.600006,3.599998 -3.600006,3.599998l0,0c-2,0 -3.600006,-1.599998 -3.600006,-3.599998zm-11.5,0c0,-2 1.600006,-3.600002 3.600006,-3.600002l0,0c2,0 3.599991,1.600002 3.599991,3.600002l0,0c0,2 -1.599991,3.599998 -3.599991,3.599998l0,0c-2,0 -3.600006,-1.599998 -3.600006,-3.599998zm-11.5,0c0,-2 1.600006,-3.600002 3.600006,-3.600002l0,0c2,0 3.599991,1.600002 3.599991,3.600002l0,0c0,2 -1.599991,3.599998 -3.599991,3.599998l0,0c-1.900009,0 -3.600006,-1.599998 -3.600006,-3.599998z"/>
     </g>
    </g>
    <g id="svg_37" class="st0">
     <g id="svg_38" class="st1">
      <g id="svg_42">
       <line id="svg_44" x1="209.3" y1="43.6" x2="180" y2="43.6"/>
       <path id="svg_43" d="m209.300003,46l-29.300003,0c-1.300003,0 -2.399994,-1.099998 -2.399994,-2.400002c0,-1.299999 1.099991,-2.399998 2.399994,-2.399998l29.300003,0c1.300003,0 2.399994,1.099998 2.399994,2.399998c0,1.400002 -1.099991,2.400002 -2.399994,2.400002z"/>
      </g>
      <g id="svg_39">
       <circle id="svg_41" cx="194.7" cy="43.1" r="7.4"/>
       <path id="svg_40" d="m194.699997,52.900002c-5.399994,0 -9.800003,-4.400002 -9.800003,-9.800003s4.400009,-9.799999 9.800003,-9.799999c5.399994,0 9.800003,4.400002 9.800003,9.799999s-4.399994,9.800003 -9.800003,9.800003zm0,-14.900002c-2.800003,0 -5.100006,2.299999 -5.100006,5.099998c0,2.800003 2.300003,5.100002 5.100006,5.100002s5.100006,-2.299999 5.100006,-5.100002c-0.100006,-2.799999 -2.300003,-5.099998 -5.100006,-5.099998z"/>
      </g>
     </g>
    </g>
    <g id="svg_31" class="st0">
     <g id="svg_34" class="st1">
      <line id="svg_36" class="st5" x1="155.7" y1="43.2" x2="126.5" y2="43.2"/>
      <path id="svg_35" class="st5" d="m155.699997,45.599998l-29.299995,0c-1.300003,0 -2.400002,-1.099998 -2.400002,-2.399998c0,-1.299999 1.099998,-2.400002 2.400002,-2.400002l29.299995,0c1.300003,0 2.399994,1.100002 2.399994,2.400002c0.000015,1.299999 -1.099991,2.399998 -2.399994,2.399998z"/>
     </g>
     <circle id="svg_33" class="st6" cx="141.1" cy="42.7" r="7.4"/>
     <path id="svg_32" class="st7" d="m141.100006,52.5c-5.399994,0 -9.800003,-4.400002 -9.800003,-9.799999s4.400009,-9.799999 9.800003,-9.799999c5.399994,0 9.800003,4.399998 9.800003,9.799999s-4.400009,9.799999 -9.800003,9.799999zm0,-14.900002c-2.800003,0 -5.100006,2.300003 -5.100006,5.100002c0,2.799999 2.300003,5.099998 5.100006,5.099998c2.800003,0 5.100006,-2.299999 5.100006,-5.099998c-0.000015,-2.799999 -2.300018,-5.100002 -5.100006,-5.100002z"/>
    </g>
    <g id="svg_17" class="st0">
     <g id="svg_18" class="st1">
      <g id="svg_24">
       <g id="svg_28">
        <line id="svg_30" x1="90.8" y1="42.5" x2="61.6" y2="42.5"/>
        <path id="svg_29" d="m90.800003,44.900002l-29.200005,0c-1.299999,0 -2.399998,-1.100002 -2.399998,-2.400002c0,-1.299999 1.099998,-2.400002 2.399998,-2.400002l29.300003,0c1.299995,0 2.400002,1.100002 2.400002,2.400002c-0.100006,1.400002 -1.200005,2.400002 -2.5,2.400002z"/>
       </g>
       <g id="svg_25">
        <circle id="svg_27" class="st3" cx="76.2" cy="42" r="7.4"/>
        <path id="svg_26" d="m76.199997,51.799999c-5.400009,0 -9.800011,-4.399998 -9.800011,-9.799999s4.400017,-9.799999 9.800011,-9.799999c5.400002,0 9.800003,4.399998 9.800003,9.799999s-4.400002,9.799999 -9.800003,9.799999zm0,-14.799999c-2.800011,0 -5.099998,2.299999 -5.099998,5.099998c0,2.800003 2.299988,5.100002 5.099998,5.100002c2.800003,0 5.099991,-2.299999 5.099991,-5.100002c0.000015,-2.899998 -2.299988,-5.099998 -5.099991,-5.099998z"/>
       </g>
      </g>
      <g id="svg_19">
       <g id="svg_21">
        <line id="svg_23" x1="47" y1="42.3" x2="55" y2="42.3"/>
        <path id="svg_22" d="m53.400002,44.299999l-6.5,0c-1.200001,0 -2.300003,-0.799999 -2.300003,-2c0,-1.200001 1,-2 2.300003,-2l6.5,0c1.199997,0 2.299999,0.799999 2.299999,2c-0.100002,1.299999 -1.100002,2 -2.299999,2z"/>
       </g>
       <path id="svg_20" d="m105.800003,44.299999l-6.5,0c-1.199989,0 -2.300003,-0.799999 -2.300003,-2c0,-1.200001 1,-2 2.300003,-2l6.5,0c1.199997,0 2.300011,0.799999 2.300011,2c-0.000015,1.299999 -1.100014,2 -2.300011,2z"/>
      </g>
     </g>
    </g>
    <g id="svg_3">
     <g id="svg_4">
      <g id="svg_10">
       <g id="svg_14">
        <line id="svg_16" class="st8" x1="233.14173" y1="100.015304" x2="93.11968" y2="100.015304" fill="#ff7f00"/>
        <path id="svg_15" class="st8" d="m233.141754,112.088783l-140.022087,0c-6.233833,0 -11.508644,-5.533661 -11.508644,-12.073486c0,-6.539787 5.274811,-12.073448 11.508644,-12.073448l140.50161,0c6.233841,0 11.508652,5.533661 11.508652,12.073448c-0.479553,7.04287 -5.754333,12.073486 -11.988159,12.073486l-0.000015,0z" fill="#ff7f00"/>
       </g>
       <g id="svg_11">
        <circle id="svg_13" class="st8" cx="163.130705" cy="97.499998" r="35.485046" fill="#ff7f00"/>
        <path id="svg_12" class="st8" d="m163.130692,146.799988c-25.894501,0 -46.993713,-22.134689 -46.993713,-49.299988s21.099213,-49.299999 46.993713,-49.299999c25.894485,0 46.993713,22.134678 46.993713,49.299999s-21.099228,49.299988 -46.993713,49.299988z" fill="#ff7f00"/>
       </g>
      </g>
      <g id="svg_5">
       <g id="svg_7">
        <line id="svg_9" class="st8" x1="23.108655" y1="99.009181" x2="61.47086" y2="99.009181" fill="#ff7f00"/>
        <path id="svg_8" class="st8" d="m53.79842,109.070396l-31.169279,0c-5.754341,0 -11.02914,-4.024483 -11.02914,-10.061218c0,-6.036751 4.79528,-10.061226 11.02914,-10.061226l31.169279,0c5.754341,0 11.02914,4.02449 11.02914,10.061226c-0.479538,6.539795 -5.274822,10.061218 -11.02914,10.061218z" fill="#ff7f00"/>
       </g>
       <path id="svg_6" class="st8" d="m305.070892,109.070396l-31.169281,0c-5.754333,0 -11.029175,-4.024483 -11.029175,-10.061218c0,-6.036751 4.795258,-10.061226 11.029175,-10.061226l31.169281,0c5.754272,0 11.029114,4.02449 11.029114,10.061226c-0.000031,6.539795 -5.274841,10.061218 -11.029114,10.061218z" fill="#ff7f00"/>
      </g>
     </g>
    </g>
    <g id="svg_1" class="st0">
     <rect id="svg_2" x="13.4" y="34.4" class="st1" width="16.6" height="16.6"/>
    </g>
   </g>
  </symbol>
 </defs>
 <g>
  <title>Layer 1</title>
  <use x="-59.559982" y="30.508486" transform="matrix(0.10785, 0, 0, 0.10785, 10.8386, 5.09496)" xlink:href="#svg_74" id="svg_75"/>
  <g id="svg_76"/>
 </g>
</svg>