<?xml version="1.0" encoding="utf-8"?>
<!-- Generator: Adobe Illustrator 19.0.0, SVG Export Plug-In . SVG Version: 6.00 Build 0)  -->
<svg version="1.1" id="Layer_1" xmlns="http://www.w3.org/2000/svg" xmlns:xlink="http://www.w3.org/1999/xlink" x="0px" y="0px"
	 viewBox="8 -2 45 35" style="enable-background:new 8 -2 45 35; fill: #AF6EE8;" xml:space="preserve">
<style type="text/css">
	.st0{display:none;}
	.st1{display:inline;}
	.st2{fill:#AF6EE8;}
	.st3{fill:#FFFFFF;}
	.st4{display:inline;fill:#AF6EE8;}
	.st5{fill:none;}
</style>

<g id="Total_YtY_x25_alt">
	<g id="XMLID_80_">
		<g id="XMLID_86_">
			<line id="XMLID_88_" class="st5" x1="44.5" y1="16.5" x2="15.4" y2="16.5"/>
			<path id="XMLID_87_" d="M44.5,18.8H15.3c-1.3,0-2.4-1.1-2.4-2.4S14,14,15.3,14h29.3c1.3,0,2.4,1.1,2.4,2.4
				C47,17.8,45.9,18.8,44.5,18.8z"/>
		</g>
		<g id="XMLID_81_">
			<circle id="XMLID_85_" class="st3" cx="30" cy="16" r="7.4"/>
			<path id="XMLID_82_" d="M30,25.8c-5.4,0-9.8-4.4-9.8-9.8s4.4-9.8,9.8-9.8s9.8,4.4,9.8,9.8S35.4,25.8,30,25.8z M30,10.8
				c-2.8,0-5.1,2.3-5.1,5.1S27.2,21,30,21s5.1-2.3,5.1-5.1C35,13.2,32.8,10.8,30,10.8z"/>
		</g>
	</g>
</g>

</svg>
