<?xml version="1.0" encoding="UTF-8"?>
<svg width="25px" height="23px" viewBox="0 0 25 23" version="1.1" xmlns="http://www.w3.org/2000/svg" xmlns:xlink="http://www.w3.org/1999/xlink">
    <!-- Generator: Sketch 42 (36781) - http://www.bohemiancoding.com/sketch -->
    <title>Group</title>
    <desc>Created with Sketch.</desc>
    <defs></defs>
    <g id="Page-1" stroke="none" stroke-width="1" fill="none" fill-rule="evenodd">
        <g id="Group" fill-rule="nonzero" fill="#477ABA">
            <path d="M24.9939553,11.3045938 C24.9850572,11.2186956 24.9584564,11.1355732 24.9158303,11.0604687 L18.9783306,0.435465625 C18.8682093,0.236582703 18.6587905,0.113169191 18.4314556,0.113184375 L6.55645562,0.113184375 C6.33263152,0.116687525 6.12776847,0.23961489 6.01936187,0.435465625 L0.081861875,11.0604687 C-0.0223976191,11.2488157 -0.0223976191,11.4775593 0.081861875,11.6659062 L6.01936187,22.2909062 C6.12776847,22.486757 6.33263152,22.6096843 6.55645562,22.6131875 L18.4314556,22.6131875 C18.6587905,22.6132027 18.8682093,22.4897892 18.9783306,22.2909062 L24.9158303,11.6659062 C24.9777043,11.5560999 25.0049372,11.4301534 24.9939553,11.3045937 L24.9939553,11.3045938 Z M23.6658303,11.3631875 L18.0701431,21.3631875 L6.92754937,21.3631875 L1.33186187,11.3631875 L6.92754937,1.36318438 L18.0701431,1.36318438 L23.6658303,11.3631875 Z M18.7439556,11.3631875 C18.7439556,7.91880938 15.9383306,5.11318438 12.4939556,5.11318438 C9.04958062,5.11318438 6.24395562,7.91880938 6.24395562,11.3631875 C6.24395562,14.8075312 9.04958062,17.6131875 12.4939556,17.6131875 C15.9383306,17.6131875 18.7439556,14.8075625 18.7439556,11.3631875 Z M17.4939556,11.3631875 C17.4939556,14.132 15.2627681,16.3631875 12.4939556,16.3631875 C9.72514313,16.3631875 7.49395563,14.1319688 7.49395563,11.3631875 C7.49395563,8.59437187 9.72514313,6.36318438 12.4939556,6.36318438 C15.2627681,6.36318438 17.4939556,8.59437188 17.4939556,11.3631875 Z" id="Shape"></path>
        </g>
    </g>
</svg>