<?xml version="1.0" encoding="UTF-8"?>
<svg width="25px" height="25px" viewBox="0 0 25 25" version="1.1" xmlns="http://www.w3.org/2000/svg" xmlns:xlink="http://www.w3.org/1999/xlink">
    <!-- Generator: Sketch 42 (36781) - http://www.bohemiancoding.com/sketch -->
    <title>Group</title>
    <desc>Created with Sketch.</desc>
    <defs></defs>
    <g id="Page-1" stroke="none" stroke-width="1" fill="none" fill-rule="evenodd">
        <g id="Group" fill-rule="nonzero" fill="#477ABA">
            <path d="M12.5,7.79891304 C9.9076087,7.79891304 7.79891304,9.90788043 7.79891304,12.5002717 C7.79891304,15.0923913 9.9076087,17.201087 12.5,17.201087 C15.0921196,17.201087 17.201087,15.0923913 17.201087,12.5002717 C17.201087,9.90788043 15.0921196,7.79891304 12.5,7.79891304 Z M12.5,16.16875 C10.4771739,16.16875 8.83152174,14.5230978 8.83152174,12.5002717 C8.83152174,10.4774457 10.4771739,8.83179348 12.5,8.83179348 C14.5228261,8.83179348 16.1684783,10.4774457 16.1684783,12.5002717 C16.1684783,14.5230978 14.5228261,16.16875 12.5,16.16875 Z" id="Shape"></path>
            <path d="M12.5,10.8423913 C11.5861413,10.8423913 10.8423913,11.5861413 10.8423913,12.5002717 C10.8423913,13.4141304 11.5858696,14.1578804 12.5,14.1578804 C13.4141304,14.1578804 14.1576087,13.4144022 14.1576087,12.5002717 C14.1576087,11.5861413 13.4138587,10.8423913 12.5,10.8423913 Z M12.5,13.125 C12.155163,13.125 11.8747283,12.844837 11.8747283,12.5002717 C11.8747283,12.1554348 12.155163,11.875 12.5,11.875 C12.844837,11.875 13.125,12.1554348 13.125,12.5002717 C13.125,12.844837 12.844837,13.125 12.5,13.125 Z" id="Shape"></path>
            <path d="M12.5,0.190217391 C5.71222826,0.190217391 0.190217391,5.7125 0.190217391,12.5002717 C0.190217391,19.2877717 5.71222826,24.8097826 12.5,24.8097826 C19.2877717,24.8097826 24.8097826,19.2877717 24.8097826,12.5002717 C24.8097826,5.7125 19.2877717,0.190217391 12.5,0.190217391 Z M12.5,23.7774457 C6.28179348,23.7774457 1.22282609,18.7184783 1.22282609,12.5002717 C1.22282609,6.28206522 6.28179348,1.22309783 12.5,1.22309783 C18.7182065,1.22309783 23.7771739,6.28206522 23.7771739,12.5002717 C23.7771739,18.7184783 18.7182065,23.7774457 12.5,23.7774457 Z" id="Shape"></path>
        </g>
    </g>
</svg>